{
    "asset" : {
        "generator" : "Khronos glTF Blender I/O v1.6.16",
        "version" : "2.0"
    },
    "scene" : 0,
    "scenes" : [
        {
            "name" : "Scene",
            "nodes" : [
                0,
                1
            ]
        }
    ],
    "nodes" : [
        {
            "mesh" : 0,
            "name" : "Plane",
            "rotation" : [
                0.5,
                -0.5,
                -0.5,
                0.5
            ],
            "translation" : [
                -0.0822800025343895,
                0.06995265930891037,
                -0.07382999360561371
            ]
        },
        {
            "mesh" : 1,
            "name" : "CAIXA_M_ECOMMERCE_ARD-node",
            "rotation" : [
                0.7071068286895752,
                0,
                0,
                0.7071068286895752
            ],
            "scale" : [
                0.0010000000474974513,
                0.0010000000474974513,
                0.0010000000474974513
            ]
        }
    ],
    "materials" : [
        {
            "doubleSided" : true,
            "name" : "Sucrilhos.001",
            "pbrMetallicRoughness" : {
                "baseColorTexture" : {
                    "index" : 0
                },
                "metallicFactor" : 0.5367646813392639,
                "roughnessFactor" : 0.5
            }
        },
        {
            "doubleSided" : true,
            "name" : "CAIXA_M_ECOMMERCE.ARD_front",
            "pbrMetallicRoughness" : {
                "baseColorTexture" : {
                    "index" : 1
                },
                "metallicFactor" : 0,
                "roughnessFactor" : 0.5
            }
        },
        {
            "doubleSided" : true,
            "name" : "CAIXA_M_ECOMMERCE.ARD_back",
            "pbrMetallicRoughness" : {
                "baseColorTexture" : {
                    "index" : 2
                },
                "metallicFactor" : 0,
                "roughnessFactor" : 0.5
            }
        },
        {
            "doubleSided" : true,
            "name" : "CAIXA_M_ECOMMERCE.ARD_edge",
            "pbrMetallicRoughness" : {
                "baseColorTexture" : {
                    "index" : 3
                },
                "metallicFactor" : 0,
                "roughnessFactor" : 0.5
            }
        }
    ],
    "meshes" : [
        {
            "name" : "Plane.002",
            "primitives" : [
                {
                    "attributes" : {
                        "POSITION" : 0,
                        "NORMAL" : 1,
                        "TEXCOORD_0" : 2
                    },
                    "indices" : 3,
                    "material" : 0
                }
            ]
        },
        {
            "name" : "CAIXA_M_ECOMMERCE_ARD-geom",
            "primitives" : [
                {
                    "attributes" : {
                        "POSITION" : 4,
                        "NORMAL" : 5,
                        "TEXCOORD_0" : 6
                    },
                    "indices" : 7,
                    "material" : 1
                },
                {
                    "attributes" : {
                        "POSITION" : 8,
                        "NORMAL" : 9,
                        "TEXCOORD_0" : 10
                    },
                    "indices" : 11,
                    "material" : 2
                },
                {
                    "attributes" : {
                        "POSITION" : 12,
                        "NORMAL" : 13,
                        "TEXCOORD_0" : 14
                    },
                    "indices" : 15,
                    "material" : 3
                }
            ]
        }
    ],
    "textures" : [
        {
            "sampler" : 0,
            "source" : 0
        },
        {
            "sampler" : 0,
            "source" : 1
        },
        {
            "sampler" : 0,
            "source" : 1
        },
        {
            "sampler" : 0,
            "source" : 2
        }
    ],
    "images" : [
        {
            "bufferView" : 4,
            "mimeType" : "image/jpeg",
            "name" : "Sucrilhos"
        },
        {
            "bufferView" : 9,
            "mimeType" : "image/png",
            "name" : "CAIXA M ECOMMERCE low"
        },
        {
            "bufferView" : 18,
            "mimeType" : "image/png",
            "name" : "_10394.ARD-I1"
        }
    ],
    "accessors" : [
        {
            "bufferView" : 0,
            "componentType" : 5126,
            "count" : 578,
            "max" : [
                0.06934979557991028,
                0.020006049424409866,
                0.040507737547159195
            ],
            "min" : [
                -0.06949947029352188,
                -0.01988421566784382,
                -0.047359585762023926
            ],
            "type" : "VEC3"
        },
        {
            "bufferView" : 1,
            "componentType" : 5126,
            "count" : 578,
            "type" : "VEC3"
        },
        {
            "bufferView" : 2,
            "componentType" : 5126,
            "count" : 578,
            "type" : "VEC2"
        },
        {
            "bufferView" : 3,
            "componentType" : 5123,
            "count" : 3456,
            "type" : "SCALAR"
        },
        {
            "bufferView" : 5,
            "componentType" : 5126,
            "count" : 15365,
            "max" : [
                310.5106201171875,
                487.90838623046875,
                1.5
            ],
            "min" : [
                -310.5141906738281,
                -270.07415771484375,
                -337.6417236328125
            ],
            "type" : "VEC3"
        },
        {
            "bufferView" : 6,
            "componentType" : 5126,
            "count" : 15365,
            "type" : "VEC3"
        },
        {
            "bufferView" : 7,
            "componentType" : 5126,
            "count" : 15365,
            "type" : "VEC2"
        },
        {
            "bufferView" : 8,
            "componentType" : 5123,
            "count" : 42648,
            "type" : "SCALAR"
        },
        {
            "bufferView" : 10,
            "componentType" : 5126,
            "count" : 13012,
            "max" : [
                310.5106201171875,
                487.69915771484375,
                1.00244140625
            ],
            "min" : [
                -310.5141906738281,
                -272.2165832519531,
                -339.15447998046875
            ],
            "type" : "VEC3"
        },
        {
            "bufferView" : 11,
            "componentType" : 5126,
            "count" : 13012,
            "type" : "VEC3"
        },
        {
            "bufferView" : 12,
            "componentType" : 5126,
            "count" : 13012,
            "type" : "VEC2"
        },
        {
            "bufferView" : 13,
            "componentType" : 5123,
            "count" : 42648,
            "type" : "SCALAR"
        },
        {
            "bufferView" : 14,
            "componentType" : 5126,
            "count" : 5053,
            "max" : [
                310.5106201171875,
                487.90838623046875,
                1.5
            ],
            "min" : [
                -310.5141906738281,
                -272.2165832519531,
                -339.1221923828125
            ],
            "type" : "VEC3"
        },
        {
            "bufferView" : 15,
            "componentType" : 5126,
            "count" : 5053,
            "type" : "VEC3"
        },
        {
            "bufferView" : 16,
            "componentType" : 5126,
            "count" : 5053,
            "type" : "VEC2"
        },
        {
            "bufferView" : 17,
            "componentType" : 5123,
            "count" : 8748,
            "type" : "SCALAR"
        }
    ],
    "bufferViews" : [
        {
            "buffer" : 0,
            "byteLength" : 6936,
            "byteOffset" : 0
        },
        {
            "buffer" : 0,
            "byteLength" : 6936,
            "byteOffset" : 6936
        },
        {
            "buffer" : 0,
            "byteLength" : 4624,
            "byteOffset" : 13872
        },
        {
            "buffer" : 0,
            "byteLength" : 6912,
            "byteOffset" : 18496
        },
        {
            "buffer" : 0,
            "byteLength" : 35513,
            "byteOffset" : 25408
        },
        {
            "buffer" : 0,
            "byteLength" : 184380,
            "byteOffset" : 60924
        },
        {
            "buffer" : 0,
            "byteLength" : 184380,
            "byteOffset" : 245304
        },
        {
            "buffer" : 0,
            "byteLength" : 122920,
            "byteOffset" : 429684
        },
        {
            "buffer" : 0,
            "byteLength" : 85296,
            "byteOffset" : 552604
        },
        {
            "buffer" : 0,
            "byteLength" : 304691,
            "byteOffset" : 637900
        },
        {
            "buffer" : 0,
            "byteLength" : 156144,
            "byteOffset" : 942592
        },
        {
            "buffer" : 0,
            "byteLength" : 156144,
            "byteOffset" : 1098736
        },
        {
            "buffer" : 0,
            "byteLength" : 104096,
            "byteOffset" : 1254880
        },
        {
            "buffer" : 0,
            "byteLength" : 85296,
            "byteOffset" : 1358976
        },
        {
            "buffer" : 0,
            "byteLength" : 60636,
            "byteOffset" : 1444272
        },
        {
            "buffer" : 0,
            "byteLength" : 60636,
            "byteOffset" : 1504908
        },
        {
            "buffer" : 0,
            "byteLength" : 40424,
            "byteOffset" : 1565544
        },
        {
            "buffer" : 0,
            "byteLength" : 17496,
            "byteOffset" : 1605968
        },
        {
            "buffer" : 0,
            "byteLength" : 160927,
            "byteOffset" : 1623464
        }
    ],
    "samplers" : [
        {
            "magFilter" : 9729,
            "minFilter" : 9987
        }
    ],
    "buffers" : [
        {
            "byteLength" : 1784392,
            "uri" : "data:application/octet-stream;base64,"
        }
    ]
}
